<svg width="173" height="173" viewBox="0 0 173 173" fill="none" xmlns="http://www.w3.org/2000/svg">
<path d="M47.7896 134.29C37.8913 126.272 30.7269 115.378 27.2858 103.114C23.8447 90.8492 24.2968 77.8187 28.5797 65.8222C32.8625 53.8256 40.7647 43.4549 51.1948 36.1424C61.625 28.8299 74.0684 24.9366 86.8064 25C99.5444 25.0635 111.948 29.0806 122.305 36.4966C132.662 43.9127 140.46 54.3616 144.624 66.4002C148.787 78.4389 149.109 91.4732 145.546 103.703C141.983 115.932 134.71 126.754 124.732 134.673L86.5 86.5L47.7896 134.29Z" fill="url(#paint0_linear_1_12)"/>
<path d="M60.2596 44.6795L63.7576 55.4451L75.0773 55.4451L65.9195 62.0987L69.4174 72.8643L60.2596 66.2108L51.1018 72.8643L54.5998 62.0987L45.442 55.4451L56.7617 55.4451L60.2596 44.6795Z" fill="white"/>
<path d="M86.5 86.5L137.341 120.94L133.847 125.932C132.358 128.059 130.558 129.951 128.509 131.545L124.22 134.881L86.5 86.5Z" fill="#D9D9D9"/>
<defs>
<linearGradient id="paint0_linear_1_12" x1="87.32" y1="24.1793" x2="87.32" y2="134.881" gradientUnits="userSpaceOnUse">
<stop stop-color="#ACFFF5"/>
<stop offset="1" stop-color="#00E2C7"/>
</linearGradient>
</defs>
</svg>
